<svg width="28" height="28" viewBox="0 0 28 28" fill="none" xmlns="http://www.w3.org/2000/svg">
<rect x="1" y="1" width="26" height="26" rx="13" stroke="#74B5BC" stroke-width="2"/>
<path d="M15.9999 11.1177H20V7M19.7674 18C19.0219 19.1817 17.9281 20.0862 16.6464 20.5808C15.3648 21.0754 13.9628 21.1339 12.6464 20.7479C11.33 20.3619 10.1688 19.5518 9.33267 18.4363C8.49659 17.3207 8.03007 15.9585 8.00141 14.5498C7.97274 13.1411 8.38323 11.7601 9.1732 10.6094C9.96316 9.45877 11.0907 8.59931 12.3902 8.1569C13.6898 7.71448 15.093 7.71236 16.3936 8.15127C17.6943 8.59018 18.824 9.44669 19.6169 10.5952" stroke="#74B5BC" stroke-width="2" stroke-linecap="round" stroke-linejoin="round"/>
</svg>
